<mxfile host="app.diagrams.net" modified="2023-07-20T12:14:26.549Z" agent="Mozilla/5.0 (Windows NT 10.0; Win64; x64; rv:109.0) Gecko/20100101 Firefox/114.0" version="21.6.3" etag="N9wq3UshHaPoDITFNJ3O" type="github">
  <diagram name="Seite-1" id="cLdfOGAhvOvhfEyrzlU3">
    <mxGraphModel>
      <root>
        <mxCell id="0" />
        <mxCell id="1" parent="0" />
      </root>
    </mxGraphModel>
  </diagram>
</mxfile>
